<svg id="Capa_1" enable-background="new 0 0 512 512" height="512"
     viewBox="0 0 512 512" width="512" xmlns="http://www.w3.org/2000/svg">
    <g>
        <path d="m278.75 422.5h-190c-8.284 0-15-6.716-15-15v-350c0-8.284 6.716-15 15-15h190c8.284 0 15 6.716 15 15v350c0 8.284-6.716 15-15 15z"
              fill="#0956c6"/>
        <path d="m203.75 322.5c-49.706 0-90-40.294-90-90v-175c0-8.284 6.716-15 15-15h150c8.284 0 15 6.716 15 15v175c0 49.706-40.294 90-90 90z"
              fill="#0a66ea"/>
        <path d="m278.75 35h-190c-12.406 0-22.5 10.093-22.5 22.5v25.315c-.799-.206-1.637-.315-2.5-.315-5.523 0-10 4.477-10 10v30c0 5.523 4.477 10 10 10 .863 0 1.701-.109 2.5-.315v20.63c-.799-.206-1.637-.315-2.5-.315-5.523 0-10 4.477-10 10v30c0 5.523 4.477 10 10 10 .863 0 1.701-.109 2.5-.315v205.315c0 12.407 10.094 22.5 22.5 22.5h190c12.406 0 22.5-10.093 22.5-22.5v-350c0-12.407-10.094-22.5-22.5-22.5zm7.5 372.5c0 4.136-3.364 7.5-7.5 7.5h-190c-4.136 0-7.5-3.364-7.5-7.5v-350c0-4.136 3.364-7.5 7.5-7.5h70.315c-.206.799-.315 1.637-.315 2.5 0 5.523 4.477 10 10 10h30c5.523 0 10-4.477 10-10 0-.863-.109-1.701-.315-2.5h70.315c4.136 0 7.5 3.364 7.5 7.5z"
              fill="#0a3575"/>
        <path d="m183.167 56.5c-4.142 0-7.5-3.358-7.5-7.5 0-4.142 3.358-7.5 7.5-7.5 4.142 0 7.5 3.358 7.5 7.5 0 4.142-3.358 7.5-7.5 7.5z"
              fill="#0a4499"/>
        <path d="m130 392.5c0 4.142-3.358 7.5-7.5 7.5h-17.5c-4.142 0-7.5-3.358-7.5-7.5s3.358-7.5 7.5-7.5h17.5c4.142 0 7.5 3.358 7.5 7.5z"
              fill="#5596fb"/>
        <path d="m251.039 172.718c3.426 3.646 1.366 9.639-3.576 10.409-11.198 1.746-18.977 12.083-17.553 23.327.628 4.963-4.56 8.601-9.012 6.319-10.086-5.169-22.455-1.379-27.913 8.555-2.409 4.384-8.744 4.278-11.005-.185-5.122-10.111-17.356-14.314-27.61-9.486-4.526 2.131-9.589-1.679-8.795-6.618 1.8-11.19-5.628-21.782-16.761-23.903-4.914-.936-6.771-6.995-3.225-10.523 8.033-7.995 8.25-20.93.49-29.19-3.426-3.646-1.367-9.638 3.576-10.409 11.198-1.746 18.977-12.083 17.553-23.327-.628-4.963 4.56-8.601 9.012-6.319 10.086 5.169 22.455 1.379 27.912-8.554 2.409-4.384 8.745-4.278 11.005.185 5.121 10.111 17.356 14.314 27.61 9.486 4.526-2.131 9.589 1.679 8.795 6.618-1.799 11.19 5.628 21.782 16.761 23.903 4.914.936 6.771 6.994 3.225 10.523-8.033 7.994-8.25 20.929-.489 29.189z"
              fill="#ffe89c"/>
        <path d="m225.51 157.071c0 20.408-16.544 36.952-36.952 36.952s-36.952-16.544-36.952-36.952 16.544-36.952 36.952-36.952 36.952 16.544 36.952 36.952z"
              fill="#ffc14f"/>
        <path d="m210.73 157.071c0 12.245-9.926 22.171-22.171 22.171s-22.171-9.926-22.171-22.171 9.926-22.171 22.171-22.171 22.171 9.926 22.171 22.171z"
              fill="#ffa90b"/>
        <path d="m150 445v-174c0-8.284 6.716-15 15-15h68.71c8.284 0 15 6.716 15 15v174c0 8.284-6.716 15-15 15h-68.71c-8.284 0-15-6.716-15-15z"
              fill="#07a9f0"/>
        <path d="m490 359.984c-17.663 39.688-45.126 74.051-79.316 100.016h-212.78c-8.284 0-15-6.716-15-15v-174c0-8.284 6.716-15 15-15h277.096c8.284 0 15 6.716 15 15z"
              fill="#40c1fa"/>
        <path d="m444.988 401.887c.379 10.667-8.155 19.434-18.738 19.434h-137.5c-10.583 0-19.117-8.767-18.738-19.434.361-10.16 9.021-18.066 19.187-18.066 10.107 0 18.301-8.193 18.301-18.301v-4.199c0-8.284 6.716-15 15-15h57.5c8.284 0 15 6.716 15 15v4.199c0 10.107 8.193 18.301 18.301 18.301h12.5c10.166 0 18.825 7.906 19.187 18.066z"
              fill="#b4e7fd"/>
        <path d="m426.543 311.183c-1.522 9.463 4.759 18.421 14.175 20.215 4.156.792 5.726 5.915 2.728 8.9-6.794 6.762-6.977 17.7-.414 24.686 2.897 3.083 1.156 8.151-3.024 8.803-9.471 1.477-16.049 10.219-14.845 19.728.531 4.197-3.856 7.274-7.621 5.344-8.53-4.372-18.99-1.166-23.606 7.235-2.037 3.708-7.395 3.618-9.307-.156-4.331-8.551-14.678-12.105-23.35-8.022-3.828 1.802-8.109-1.42-7.438-5.597 1.522-9.463-4.759-18.421-14.175-20.215-4.156-.792-5.726-5.915-2.728-8.9 6.794-6.762 6.977-17.7.414-24.686-2.897-3.083-1.156-8.151 3.024-8.803 9.471-1.477 16.049-10.219 14.845-19.728-.531-4.197 3.856-7.274 7.621-5.344 8.53 4.372 18.99 1.166 23.606-7.235 2.037-3.708 7.395-3.618 9.307.156 4.331 8.551 14.678 12.105 23.35 8.022 3.828-1.802 8.109 1.42 7.438 5.597z"
              fill="#fcf2b6"/>
        <path d="m421.441 351.75c0 17.259-13.991 31.25-31.25 31.25s-31.25-13.991-31.25-31.25 13.991-31.25 31.25-31.25 31.25 13.991 31.25 31.25z"
              fill="#ffc14f"/>
        <path d="m408.941 351.75c0 10.355-8.395 18.75-18.75 18.75s-18.75-8.395-18.75-18.75 8.395-18.75 18.75-18.75 18.75 8.395 18.75 18.75z"
              fill="#ffa90b"/>
        <path d="m447.349 290.778h-50c-10.355 0-18.75 8.395-18.75 18.75s8.395 18.75 18.75 18.75h50c10.355 0 18.75-8.395 18.75-18.75 0-10.356-8.395-18.75-18.75-18.75z"
              fill="#b4e7fd"/>
        <path d="m177.5 327.5c0-4.142 3.358-7.5 7.5-7.5h27.5c4.142 0 7.5 3.358 7.5 7.5s-3.358 7.5-7.5 7.5h-27.5c-4.142 0-7.5-3.358-7.5-7.5zm65 22.5h-57.5c-4.142 0-7.5 3.358-7.5 7.5s3.358 7.5 7.5 7.5h57.5c4.142 0 7.5-3.358 7.5-7.5s-3.358-7.5-7.5-7.5z"
              fill="#5596fb"/>
        <path d="m278.347 230v-40c0-22.091 17.909-40 40-40 22.091 0 40 17.909 40 40v40c0 22.091-17.909 40-40 40-22.092 0-40-17.909-40-40z"
              fill="#ffe1aa"/>
        <path d="m278.347 204.565v-114.565c0-22.091 17.909-40 40-40 22.091 0 40 17.909 40 40v114.565c0 22.091-17.909 40-40 40-22.092 0-40-17.909-40-40zm152.153-106.065c0-4.142-3.358-7.5-7.5-7.5h-45.5c-4.142 0-7.5 3.358-7.5 7.5 0 4.142 3.358 7.5 7.5 7.5h45.5c4.142 0 7.5-3.358 7.5-7.5zm-38 36.5h-15c-4.142 0-7.5-3.358-7.5-7.5 0-4.142 3.358-7.5 7.5-7.5h15c4.142 0 7.5 3.358 7.5 7.5 0 4.142-3.358 7.5-7.5 7.5zm0 30h-15c-4.142 0-7.5-3.358-7.5-7.5 0-4.142 3.358-7.5 7.5-7.5h15c4.142 0 7.5 3.358 7.5 7.5 0 4.142-3.358 7.5-7.5 7.5zm-82.5 122.5c0 4.142-3.358 7.5-7.5 7.5h-117.5c-4.142 0-7.5-3.358-7.5-7.5 0-4.142 3.358-7.5 7.5-7.5h117.5c4.142 0 7.5 3.358 7.5 7.5zm-107.5 137.5h-17.5c-4.142 0-7.5 3.358-7.5 7.5s3.358 7.5 7.5 7.5h17.5c4.142 0 7.5-3.358 7.5-7.5s-3.358-7.5-7.5-7.5zm20-15c-4.142 0-7.5 3.358-7.5 7.5s3.358 7.5 7.5 7.5 7.5-3.358 7.5-7.5-3.358-7.5-7.5-7.5zm-110.052-207.803c-2.93-2.929-7.678-2.929-10.607 0l-35.355 35.355c-2.929 2.929-2.929 7.678 0 10.606 2.93 2.929 7.678 2.929 10.607 0l22.552-22.552v106.894c0 4.142 3.358 7.5 7.5 7.5s7.5-3.358 7.5-7.5v-106.893l22.552 22.552c1.465 1.464 3.385 2.197 5.304 2.197s3.839-.732 5.304-2.197c2.929-2.929 2.929-7.678 0-10.606z"
              fill="#fff5f5"/>
        <path d="m318.347 160c-4.142 0-7.5-3.358-7.5-7.5v-65c0-4.142 3.358-7.5 7.5-7.5 4.142 0 7.5 3.358 7.5 7.5v65c0 4.142-3.358 7.5-7.5 7.5z"
              fill="#ffd993"/>
        <path d="m338.347 230c0 11.046-8.954 20-20 20-11.046 0-20-8.954-20-20 0-8.393 5.171-15.579 12.5-18.546v-63.954c0-4.142 3.358-7.5 7.5-7.5 4.142 0 7.5 3.358 7.5 7.5v63.954c7.329 2.967 12.5 10.153 12.5 18.546z"
              fill="#f44545"/>
    </g>
</svg>