<svg id="Capa_1" enable-background="new 0 0 512 512" height="512"
     viewBox="0 0 512 512" width="512" xmlns="http://www.w3.org/2000/svg">
    <g>
        <g clip-rule="evenodd" fill-rule="evenodd">
            <path d="m461.74 127.404v290.895c0 17.83-14.598 32.43-32.456 32.43h-396.826c-17.859 0-32.458-14.6-32.458-32.43v-290.895z"
                  fill="#fff8ef"/>
            <path d="m461.74 127.404v290.895c0 17.83-14.598 32.43-32.456 32.43h-29.991c17.83 0 32.429-14.6 32.429-32.43v-290.895z"
                  fill="#fff1dd"/>
            <path d="m35.604 46.277h390.505c19.587 0 35.631 16.043 35.631 35.631v50.514h-461.74v-50.514c0-19.588 16.016-35.631 35.604-35.631z"
                  fill="#ff8086"/>
            <path d="m396.118 46.277h29.991c19.587 0 35.631 16.043 35.631 35.631v50.514h-30.018v-50.514c0-19.588-16.016-35.631-35.604-35.631z"
                  fill="#e5646e"/>
            <path d="m69.677 3.955c9.836 0 17.858 8.049 17.858 17.857v48.531c0 9.807-8.022 17.857-17.858 17.857-9.808 0-17.831-8.051-17.831-17.857v-48.531c0-9.808 8.023-17.857 17.831-17.857zm107.462 0c9.808 0 17.859 8.049 17.859 17.857v48.531c0 9.807-8.051 17.857-17.859 17.857-9.808 0-17.858-8.051-17.858-17.857v-48.531c0-9.808 8.05-17.857 17.858-17.857zm107.463 0c9.808 0 17.831 8.049 17.831 17.857v48.531c0 9.807-8.023 17.857-17.831 17.857-9.836 0-17.858-8.051-17.858-17.857v-48.531c-.001-9.808 8.022-17.857 17.858-17.857zm107.435.227c9.836 0 17.857 8.021 17.857 17.83v48.529c0 9.836-8.022 17.859-17.857 17.859-9.81 0-17.859-8.023-17.859-17.859v-48.529c0-9.809 8.05-17.83 17.859-17.83z"
                  fill="#6f6571"/>
            <path d="m54.228 311.262h79.229c3.317 0 6.01 2.693 6.01 6.01v79.23c0 3.287-2.693 6.01-6.01 6.01h-79.229c-3.288 0-5.981-2.723-5.981-6.01v-79.23c0-3.317 2.692-6.01 5.981-6.01zm0-130.621h79.229c3.317 0 6.01 2.721 6.01 6.008v79.23c0 3.316-2.693 6.01-6.01 6.01h-79.229c-3.288 0-5.981-2.693-5.981-6.01v-79.23c0-3.288 2.692-6.008 5.981-6.008zm137.028 0h79.23c3.288 0 6.009 2.721 6.009 6.008v79.23c0 3.316-2.721 6.01-6.009 6.01h-79.23c-3.316 0-6.01-2.693-6.01-6.01v-79.23c0-3.288 2.693-6.008 6.01-6.008zm137 0h79.23c3.316 0 6.01 2.721 6.01 6.008v79.23c0 3.316-2.693 6.01-6.01 6.01h-79.23c-3.288 0-6.009-2.693-6.009-6.01v-79.23c0-3.288 2.721-6.008 6.009-6.008zm-137 130.621h79.23c3.288 0 6.009 2.693 6.009 6.01v79.23c0 3.287-2.721 6.01-6.009 6.01h-79.23c-3.316 0-6.01-2.723-6.01-6.01v-79.23c0-3.317 2.693-6.01 6.01-6.01z"
                  fill="#c3ddff"/>
            <path d="m103.466 311.262h29.991c3.317 0 6.01 2.693 6.01 6.01v79.23c0 3.287-2.693 6.01-6.01 6.01h-29.991c3.316 0 6.01-2.723 6.01-6.01v-79.23c0-3.317-2.694-6.01-6.01-6.01zm0-130.621h29.991c3.317 0 6.01 2.721 6.01 6.008v79.23c0 3.316-2.693 6.01-6.01 6.01h-29.991c3.316 0 6.01-2.693 6.01-6.01v-79.23c0-3.288-2.694-6.008-6.01-6.008zm137.029 0h29.991c3.288 0 6.009 2.721 6.009 6.008v79.23c0 3.316-2.721 6.01-6.009 6.01h-29.991c3.288 0 5.981-2.693 5.981-6.01v-79.23c0-3.288-2.693-6.008-5.981-6.008zm136.999 0h29.991c3.316 0 6.01 2.721 6.01 6.008v79.23c0 3.316-2.693 6.01-6.01 6.01h-29.991c3.288 0 6.01-2.693 6.01-6.01v-79.23c0-3.288-2.722-6.008-6.01-6.008zm-136.999 130.621h29.991c3.288 0 6.009 2.693 6.009 6.01v79.23c0 3.287-2.721 6.01-6.009 6.01h-29.991c3.288 0 5.981-2.723 5.981-6.01v-79.23c0-3.317-2.693-6.01-5.981-6.01z"
                  fill="#a4ccff"/>
            <path d="m410.887 508.045c55.701 0 101.113-45.439 101.113-101.111 0-55.703-45.412-101.113-101.113-101.113-55.673 0-101.084 45.41-101.084 101.113 0 55.671 45.411 101.111 101.084 101.111z"
                  fill="#edf4ff"/>
            <path d="m410.887 305.82c55.842 0 101.113 45.27 101.113 101.114 0 55.842-45.271 101.111-101.113 101.111-5.074 0-10.091-.396-14.995-1.105 48.728-7.256 86.117-49.266 86.117-100.006 0-50.742-37.39-92.752-86.117-100.008 4.904-.709 9.92-1.106 14.995-1.106z"
                  fill="#dbeaff"/>
        </g>
        <path d="m403.403 338.9c0-4.139 3.345-7.512 7.483-7.512 4.167 0 7.512 3.373 7.512 7.512v68.033c0 2.012-.793 3.854-2.126 5.215l-47.226 55.559c-2.665 3.148-7.37 3.545-10.545.879-3.147-2.664-3.544-7.398-.879-10.545l45.78-53.83v-65.311z"
              fill="#6f6571"/>
    </g>
</svg>