<svg id="Capa_1" enable-background="new 0 0 512 512" height="512"
     viewBox="0 0 512 512" width="512" xmlns="http://www.w3.org/2000/svg">
    <g>
        <g>
            <path clip-rule="evenodd"
                  d="m0 221.965v68.041c0 14.105 11.506 25.61 25.581 25.61h29.29c4.264 14.105 9.958 27.567 16.908 40.27l-20.879 20.85c-9.958 9.958-9.958 26.253 0 36.211l48.125 48.125c9.958 9.958 26.253 9.958 36.211 0l20.879-20.879c12.674 6.95 26.165 12.645 40.24 16.908v29.29c0 14.075 11.535 25.61 25.61 25.61h68.041c14.105 0 25.61-11.535 25.61-25.61v-28.209c14.543-4.117 28.443-9.754 41.525-16.704l19.595 19.595c9.958 9.958 26.253 9.958 36.211 0l48.125-48.125c9.958-9.958 9.958-26.253 0-36.211l-18.543-18.543c7.534-13.345 13.667-27.625 18.193-42.577h25.669c14.075 0 25.61-11.506 25.61-25.61v-68.041c0-14.075-11.535-25.61-25.61-25.61h-24.588c-4.38-15.419-10.425-30.107-17.988-43.862l17.258-17.258c9.958-9.958 9.958-26.253 0-36.211l-48.125-48.125c-9.958-9.958-26.253-9.958-36.211 0l-17.229 17.258c-13.783-7.534-28.472-13.608-43.891-17.959v-24.618c-.001-14.075-11.507-25.581-25.611-25.581h-68.041c-14.075 0-25.61 11.506-25.61 25.581v25.669c-14.951 4.526-29.202 10.659-42.577 18.193l-18.543-18.543c-9.958-9.958-26.253-9.958-36.211 0l-48.125 48.124c-9.958 9.958-9.958 26.253 0 36.211l19.624 19.624c-6.95 13.083-12.586 26.953-16.704 41.496h-28.238c-14.075 0-25.581 11.535-25.581 25.61z"
                  fill="#9d9696" fill-rule="evenodd"/>
        </g>
        <g>
            <path clip-rule="evenodd"
                  d="m99.375 255.985c0 87.256 70.727 157.983 157.983 157.983s157.983-70.727 157.983-157.983-70.727-157.983-157.983-157.983-157.983 70.728-157.983 157.983z"
                  fill="#eee1dc" fill-rule="evenodd"/>
        </g>
        <g>
            <path clip-rule="evenodd"
                  d="m412.947 50.899c-9.958-9.958-26.253-9.958-36.211 0l-17.229 17.258c-13.783-7.534-28.472-13.608-43.891-17.959v-24.617c0-14.075-11.506-25.581-25.61-25.581h-68.041c-5.432 0-10.484 1.694-14.659 4.614 40.182 17.054 74.874 53.148 99.316 101.214 63.135 20.704 108.719 80.101 108.719 150.157 0 63.339-37.262 117.976-91.081 143.178-15.915 46.548-40.386 85.679-70.377 112.837h36.123c14.105 0 25.61-11.535 25.61-25.61v-28.209c14.543-4.117 28.443-9.754 41.525-16.704l19.595 19.595c9.958 9.958 26.253 9.958 36.211 0l48.125-48.125c9.958-9.958 9.958-26.253 0-36.211l-18.543-18.543c7.534-13.345 13.667-27.625 18.193-42.577h25.669c14.075 0 25.61-11.506 25.61-25.61v-68.041c0-14.075-11.535-25.61-25.61-25.61h-24.588c-4.38-15.419-10.425-30.107-17.988-43.862l17.258-17.258c9.958-9.958 9.958-26.253 0-36.211z"
                  fill="#746e6e" fill-rule="evenodd"/>
        </g>
        <g>
            <path clip-rule="evenodd"
                  d="m415.341 255.985c0-70.056-45.584-129.453-108.719-150.157 23.741 46.723 37.817 104.748 37.817 167.649 0 16.558-.964 32.765-2.833 48.563-3.241 27.246-9.169 53.177-17.346 77.123 53.819-25.201 91.081-79.838 91.081-143.178z"
                  fill="#cdbeb9" fill-rule="evenodd"/>
        </g>
        <g>
            <path d="m257.358 352.576c-4.301 0-7.787-3.486-7.787-7.787v-67.399c0-4.301 3.486-7.787 7.787-7.787s7.787 3.486 7.787 7.787v67.398c0 4.302-3.486 7.788-7.787 7.788z"
                  fill="#746e6e"/>
        </g>
        <g>
            <path d="m200.943 308.831c-2.156 0-4.301-.89-5.841-2.633-13.14-14.883-20.376-33.981-20.376-53.776 0-19.828 7.238-38.928 20.382-53.782 2.85-3.22 7.772-3.521 10.992-.672 3.221 2.85 3.521 7.772.672 10.992-10.622 12.005-16.472 27.44-16.472 43.463 0 15.996 5.852 31.433 16.477 43.468 2.847 3.224 2.54 8.145-.684 10.991-1.48 1.307-3.319 1.949-5.15 1.949zm109.881 0c-1.831 0-3.67-.642-5.151-1.95-3.224-2.846-3.53-7.767-.684-10.991 10.626-12.035 16.478-27.473 16.478-43.468 0-16.022-5.85-31.457-16.472-43.461-2.85-3.221-2.549-8.142.672-10.992 3.219-2.85 8.142-2.55 10.992.672 13.143 14.855 20.381 33.954 20.381 53.782 0 19.794-7.236 38.892-20.375 53.776-1.539 1.742-3.685 2.632-5.841 2.632z"
                  fill="#746e6e"/>
        </g>
        <g>
            <path d="m338.565 333.39c-1.834 0-3.675-.644-5.157-1.955-3.221-2.85-3.522-7.771-.672-10.992 16.629-18.796 25.788-42.953 25.788-68.021 0-25.096-9.157-49.251-25.784-68.016-2.852-3.219-2.555-8.141.664-10.993 3.218-2.853 8.141-2.554 10.992.664 19.154 21.616 29.701 49.44 29.701 78.345 0 28.873-10.546 56.695-29.697 78.341-1.538 1.74-3.682 2.627-5.835 2.627zm-165.364 0c-2.153 0-4.296-.888-5.835-2.627-19.15-21.645-29.697-49.467-29.697-78.341 0-28.905 10.548-56.729 29.701-78.345 2.851-3.218 7.773-3.517 10.993-.664 3.219 2.852 3.516 7.774.664 10.993-16.627 18.765-25.783 42.92-25.783 68.016 0 25.068 9.158 49.225 25.787 68.021 2.85 3.221 2.549 8.142-.672 10.992-1.483 1.311-3.324 1.955-5.158 1.955z"
                  fill="#746e6e"/>
        </g>
        <g>
            <path clip-rule="evenodd"
                  d="m323.53 399.514c-6.658-30.253-33.933-52.885-66.172-52.885s-59.543 22.632-66.172 52.885c20.12 9.286 42.547 14.455 66.172 14.455s46.022-5.169 66.172-14.455z"
                  fill="#fdb440" fill-rule="evenodd"/>
        </g>
        <g>
            <path clip-rule="evenodd"
                  d="m323.53 399.514c-6.658-30.253-33.933-52.885-66.172-52.885-15.652 0-30.166 5.315-41.671 14.28 5.811-1.606 11.914-2.482 18.222-2.482 31.188 0 57.733 21.172 65.442 49.906 8.351-2.307 16.44-5.257 24.179-8.819z"
                  fill="#fe9737" fill-rule="evenodd"/>
        </g>
        <g>
            <path clip-rule="evenodd"
                  d="m228.127 248.159c0 16.149 13.083 29.231 29.231 29.231 16.12 0 29.202-13.083 29.202-29.231 0-16.12-13.083-29.202-29.202-29.202-16.149 0-29.231 13.083-29.231 29.202z"
                  fill="#fd8087" fill-rule="evenodd"/>
        </g>
        <g>
            <path clip-rule="evenodd"
                  d="m286.56 248.159c0-16.12-13.083-29.202-29.202-29.202-3.475 0-6.804.613-9.9 1.723 11.038 4.147 18.894 14.835 18.894 27.333 0 12.674-8.031 23.449-19.303 27.508 3.183 1.197 6.658 1.869 10.308 1.869 16.12.001 29.203-13.082 29.203-29.231z"
                  fill="#fd4755" fill-rule="evenodd"/>
        </g>
    </g>
</svg>