<svg id="Layer_1" enable-background="new 0 0 512 512" height="512"
     viewBox="0 0 512 512" width="512" xmlns="http://www.w3.org/2000/svg">
    <g>
        <path d="m489.062 32.5h-466.124c-12.648 0-22.938 10.276-22.938 22.908v341.185c0 12.631 10.29 22.907 22.938 22.907h181.021l-15 45h-26.96c-4.143 0-7.5 3.358-7.5 7.5s3.357 7.5 7.5 7.5h188.002c4.143 0 7.5-3.358 7.5-7.5s-3.357-7.5-7.5-7.5h-26.96l-15-45h181.021c12.648 0 22.938-10.276 22.938-22.908v-205.236c0-4.142-3.357-7.5-7.5-7.5s-7.5 3.358-7.5 7.5v183.144h-75.811c-4.143 0-7.5 3.358-7.5 7.5s3.357 7.5 7.5 7.5h75.811v7.092c0 4.36-3.562 7.908-7.938 7.908h-466.124c-4.377 0-7.938-3.547-7.938-7.908v-7.092h370.963c4.143 0 7.5-3.358 7.5-7.5s-3.357-7.5-7.5-7.5h-370.963v-297h74.825c4.143 0 7.5-3.358 7.5-7.5s-3.357-7.5-7.5-7.5h-74.825v-7.092c0-4.36 3.562-7.908 7.938-7.908h466.123c4.377 0 7.938 3.547 7.938 7.908v7.092h-372.709c-4.143 0-7.5 3.358-7.5 7.5s3.357 7.5 7.5 7.5h372.71v78.35c0 4.142 3.357 7.5 7.5 7.5s7.5-3.358 7.5-7.5v-100.442c0-12.632-10.29-22.908-22.938-22.908zm-196.833 387 15 45h-102.458l15-45z"/>
        <path d="m49.101 212.837c-4.143 0-7.5 3.358-7.5 7.5v92.643c0 4.142 3.357 7.5 7.5 7.5h173.799c4.143 0 7.5-3.358 7.5-7.5v-173.96c0-4.142-3.357-7.5-7.5-7.5h-173.799c-4.143 0-7.5 3.358-7.5 7.5v46.472c0 4.142 3.357 7.5 7.5 7.5s7.5-3.358 7.5-7.5v-38.972h44.277v72.795c0 2.582 1.328 4.982 3.515 6.354 2.188 1.372 4.927 1.522 7.25.398l24.357-11.778 24.357 11.778c1.034.5 2.15.748 3.265.748 1.388 0 2.771-.385 3.985-1.146 2.187-1.372 3.515-3.772 3.515-6.354v-72.795h44.277v158.96h-158.798v-85.143c0-4.142-3.358-7.5-7.5-7.5zm107.021-5.48-16.857-8.151c-1.031-.499-2.147-.748-3.265-.748s-2.233.25-3.265.748l-16.857 8.151v-60.837h40.244z"/>
        <path d="m159.353 271.527c4.143 0 7.5-3.358 7.5-7.5s-3.357-7.5-7.5-7.5h-46.705c-4.143 0-7.5 3.358-7.5 7.5s3.357 7.5 7.5 7.5z"/>
        <path d="m279.634 138.083c-12.406 0-22.499 10.093-22.499 22.5s10.093 22.5 22.499 22.5 22.499-10.093 22.499-22.5-10.093-22.5-22.499-22.5zm0 30c-4.135 0-7.499-3.364-7.499-7.5s3.364-7.5 7.499-7.5 7.499 3.364 7.499 7.5-3.364 7.5-7.499 7.5z"/>
        <path d="m464.043 151.992h-135.33c-4.143 0-7.5 3.358-7.5 7.5s3.357 7.5 7.5 7.5h135.33c4.143 0 7.5-3.358 7.5-7.5s-3.357-7.5-7.5-7.5z"/>
        <path d="m279.634 203.5c-12.406 0-22.499 10.093-22.499 22.5s10.093 22.5 22.499 22.5 22.499-10.093 22.499-22.5-10.093-22.5-22.499-22.5zm0 30c-4.135 0-7.499-3.364-7.499-7.5s3.364-7.5 7.499-7.5 7.499 3.364 7.499 7.5-3.364 7.5-7.499 7.5z"/>
        <path d="m464.043 217.408h-135.33c-4.143 0-7.5 3.358-7.5 7.5s3.357 7.5 7.5 7.5h135.33c4.143 0 7.5-3.358 7.5-7.5s-3.357-7.5-7.5-7.5z"/>
        <path d="m279.634 268.917c-12.406 0-22.499 10.093-22.499 22.5s10.093 22.5 22.499 22.5 22.499-10.093 22.499-22.5-10.093-22.5-22.499-22.5zm0 30c-4.135 0-7.499-3.364-7.499-7.5s3.364-7.5 7.499-7.5 7.499 3.364 7.499 7.5-3.364 7.5-7.499 7.5z"/>
        <path d="m464.043 282.824h-135.33c-4.143 0-7.5 3.358-7.5 7.5s3.357 7.5 7.5 7.5h135.33c4.143 0 7.5-3.358 7.5-7.5s-3.357-7.5-7.5-7.5z"/>
    </g>
</svg>