<?xml version="1.0" encoding="iso-8859-1"?>
<!-- Generator: Adobe Illustrator 19.0.0, SVG Export Plug-In . SVG Version: 6.00 Build 0)  -->
<svg version="1.1" id="Capa_1" xmlns="http://www.w3.org/2000/svg" x="0px"
     y="0px"
     viewBox="0 0 512 512" style="enable-background:new 0 0 512 512;"
     xml:space="preserve">
<path style="fill:#C8C6CD;" d="M388.98,127.91v155.63l-67.35-0.02V130.47c0-16.71-7.35-31.85-19.22-42.8
	C290.53,76.72,274.12,69.94,256,69.94c-36.25,0-65.63,27.1-65.63,60.53V283.5h-67.35V127.91C123.02,57.27,182.56,0,256,0
	S388.98,57.27,388.98,127.91z"/>
    <path style="fill:#AEADB3;" d="M388.98,127.91v155.63l-67.35-0.02V130.47c0-16.71-7.35-31.85-19.22-42.8
	C290.53,76.72,274.12,69.94,256,69.94V0C329.44,0,388.98,57.27,388.98,127.91z"/>
    <rect x="72.24" y="203.98" style="fill:#FFB74F;" width="367.52"
          height="308.02"/>
    <rect x="256" y="203.98" style="fill:#FF9A00;" width="183.76"
          height="308.02"/>
    <g>
	<path style="fill:#9A4C00;" d="M361.47,348.25l-24.76,16.95c-18.27-26.7-48.44-42.64-80.71-42.64s-62.44,15.94-80.71,42.64
		l-24.76-16.95c23.87-34.87,63.3-55.69,105.47-55.69S337.6,313.38,361.47,348.25z"/>
        <path style="fill:#9A4C00;" d="M318.26,378.75l-24.76,16.94c-8.49-12.41-22.51-19.81-37.5-19.81c-14.99,0-29.01,7.4-37.5,19.81
		l-24.76-16.94c14.09-20.59,37.36-32.87,62.26-32.87S304.17,358.16,318.26,378.75z"/>
</g>
    <circle style="fill:#FF8900;" cx="256" cy="418.52" r="16.1"/>
    <path style="fill:#C06100;"
          d="M272.1,418.52c0,8.89-7.21,16.1-16.1,16.1v-32.2C264.89,402.42,272.1,409.63,272.1,418.52z"/>
    <g>
	<path style="fill:#703700;" d="M318.26,378.75l-24.76,16.94c-8.49-12.41-22.51-19.81-37.5-19.81v-30
		C280.9,345.88,304.17,358.16,318.26,378.75z"/>
        <path style="fill:#703700;" d="M361.47,348.25l-24.76,16.95c-18.27-26.7-48.44-42.64-80.71-42.64v-30
		C298.17,292.56,337.6,313.38,361.47,348.25z"/>
</g>
    <g>
</g>
    <g>
</g>
    <g>
</g>
    <g>
</g>
    <g>
</g>
    <g>
</g>
    <g>
</g>
    <g>
</g>
    <g>
</g>
    <g>
</g>
    <g>
</g>
    <g>
</g>
    <g>
</g>
    <g>
</g>
    <g>
</g>
</svg>
