<svg height="512" viewBox="0 0 58 58" width="512"
     xmlns="http://www.w3.org/2000/svg">
    <g id="Page-1" fill="none" fill-rule="evenodd">
        <g id="007---Sun-Temperature" fill-rule="nonzero">
            <path id="Shape"
                  d="m44.482 39.3c-3.969 4.531-9.277 7.7-15.472 7.7-7.8630057.0031264-14.8180874-5.0979366-17.1776133-12.5985703-2.35952578-7.5006337.4226207-15.6648033 6.8713264-20.1638102 6.4487057-4.49900692 15.0714063-4.29154804 21.2962869.5123805z"
                  fill="#f0c419"/>
            <g fill="#f3d55b">
                <path id="Shape"
                      d="m34.995 7.84v-.01c-.13-4.89-5.99-7.83-5.99-7.83s-.89 5.34-5.19 7.62c3.6827107-.89264972 7.5334095-.82031995 11.18.21z"/>
                <path id="Shape"
                      d="m23.005 50.16v.01c.13 4.89 5.995 7.83 5.995 7.83s.89-5.34 5.19-7.62c-3.6827107.8926497-7.5334095.82032-11.18-.21z"/>
                <path id="Shape"
                      d="m18.277 9.8-.007-.008c-3.55-3.366-9.77-1.302-9.77-1.302s3.147 4.406 1.719 9.058c1.9727387-3.2354032 4.746792-5.9071602 8.054-7.757z"/>
                <path id="Shape"
                      d="m7.84 23.005h-.01c-4.89.13-7.83 5.995-7.83 5.995s5.34.89 7.62 5.19c-.89264972-3.6827107-.82031995-7.5334095.21-11.18z"/>
                <path id="Shape"
                      d="m9.8 39.723-.008.007c-3.366 3.55-1.302 9.77-1.302 9.77s4.406-3.147 9.058-1.719c-3.2354032-1.9727387-5.9071602-4.746792-7.757-8.054z"/>
            </g>
            <path id="Shape"
                  d="m53.236 36.421c-.7693288-.5681225-1.2270504-1.464679-1.236-2.421v-25.79c.0503874-2.87979204-1.9093231-5.40690752-4.711-6.075-1.7757972-.38830881-3.6319144.04852449-5.0481348 1.18806798-1.4162203 1.13954349-2.2401501 2.85917544-2.2408652 4.67693202v26c-.0069906.9511848-.4606863 1.8437616-1.225 2.41-4.1183657 3.1057174-5.7912777 8.4958392-4.1550554 13.3875866 1.6362224 4.8917475 6.2154787 8.1906048 11.3736187 8.1934584 5.15814.0028535 9.7410435-3.2909352 11.3826772-8.1808693s-.0253136-10.2819036-4.1402405-13.3921757z"
                  fill="#b0d3f0"/>
            <path id="Shape"
                  d="m48 36.861v-16.754c.0222852-1.0048321-.6787841-1.8811688-1.664-2.08-.5810531-.0990245-1.1761996.063304-1.6265064.4436359s-.7099139.9399335-.7094936 1.5293641v16.859c-.013332.8073951-.503705 1.5301947-1.249 1.841-3.4522512 1.5348385-5.360143 5.2755919-4.5756235 8.9713052.7845195 3.6957134 4.0475595 6.3387906 7.8256235 6.3387906s7.041104-2.6430772 7.8256235-6.3387906c.7845195-3.6957133-1.1233723-7.4364667-4.5756235-8.9713052-.7461091-.3090581-1.2375753-1.0315252-1.251-1.839z"
                  fill="#c03a2b"/>
            <path id="Shape"
                  d="m42 47c-.5522847 0-1-.4477153-1-1 .0033061-2.7600532 2.2399468-4.9966939 5-5 .5522847 0 1 .4477153 1 1s-.4477153 1-1 1c-1.6568542 0-3 1.3431458-3 3 0 .5522847-.4477153 1-1 1z"
                  fill="#e64c3c"/>
        </g>
    </g>
</svg>