<?xml version="1.0" encoding="iso-8859-1"?>
<!-- Generator: Adobe Illustrator 16.0.0, SVG Export Plug-In . SVG Version: 6.00 Build 0)  -->
<!DOCTYPE svg PUBLIC "-//W3C//DTD SVG 1.1//EN"
        "http://www.w3.org/Graphics/SVG/1.1/DTD/svg11.dtd">
<svg version="1.1" id="Capa_1" xmlns="http://www.w3.org/2000/svg" x="0px"
     y="0px"
     width="402px" height="402px" viewBox="0 0 402 402"
     style="enable-background:new 0 0 402 402;"
     xml:space="preserve">
<g>
	<g>
		<g>
			<g>
				<path d="M201.048,368.728c-26.316,0-47.738-21.407-47.738-47.744c0-26.325,21.416-47.727,47.738-47.727
					c26.325,0,47.75,21.401,47.75,47.727C248.798,347.321,227.379,368.728,201.048,368.728z"/>
			</g>
		</g>
        <g>
			<g>
				<path d="M369.542,168.36c-8.707,0-16.892-3.39-23.046-9.544c-38.833-38.842-90.475-60.24-145.428-60.24
					c-54.953,0-106.6,21.392-145.442,60.24c-12.328,12.298-33.768,12.298-46.078,0.027c-12.73-12.742-12.73-33.419-0.006-46.117
					C60.695,61.565,128.714,33.39,201.057,33.39c72.379,0,140.389,28.175,191.532,79.342c12.706,12.697,12.706,33.375,0,46.083
					C386.428,164.976,378.249,168.36,369.542,168.36z"/>
			</g>
		</g>
        <g>
			<g>
				<path d="M313.379,224.523c-8.7,0-16.885-3.387-23.04-9.554C266.494,191.13,234.801,178,201.062,178
					c-33.753,0-65.455,13.136-89.288,36.993c-12.373,12.304-33.789,12.285-46.087,0.012c-12.721-12.725-12.721-33.42-0.024-46.117
					c36.179-36.161,84.245-56.072,135.384-56.072c51.143,0,99.229,19.918,135.384,56.079c6.155,6.143,9.554,14.328,9.554,23.041
					c0,8.707-3.398,16.892-9.542,23.047C330.247,221.148,322.068,224.523,313.379,224.523z"/>
			</g>
		</g>
        <g>
			<g>
				<path d="M144.891,280.679c-8.713,0-16.909-3.393-23.07-9.564c-6.143-6.138-9.529-14.328-9.529-23.035s3.393-16.892,9.547-23.046
					c21.14-21.131,49.26-32.748,79.209-32.748c29.952,0,58.084,11.628,79.222,32.735c6.154,6.167,9.547,14.352,9.559,23.047
					c0.007,8.719-3.393,16.897-9.541,23.059c-12.37,12.34-33.843,12.31-46.117-0.012c-8.82-8.81-20.578-13.674-33.122-13.674
					c-12.529,0-24.287,4.864-33.128,13.697C161.789,277.287,153.604,280.679,144.891,280.679z"/>
			</g>
		</g>
	</g>
</g>
    <g>
</g>
    <g>
</g>
    <g>
</g>
    <g>
</g>
    <g>
</g>
    <g>
</g>
    <g>
</g>
    <g>
</g>
    <g>
</g>
    <g>
</g>
    <g>
</g>
    <g>
</g>
    <g>
</g>
    <g>
</g>
    <g>
</g>
</svg>
