<?xml version="1.0" encoding="iso-8859-1"?>
<!-- Generator: Adobe Illustrator 16.0.0, SVG Export Plug-In . SVG Version: 6.00 Build 0)  -->
<!DOCTYPE svg PUBLIC "-//W3C//DTD SVG 1.1//EN"
        "http://www.w3.org/Graphics/SVG/1.1/DTD/svg11.dtd">
<svg version="1.1" id="Capa_1" xmlns="http://www.w3.org/2000/svg" x="0px"
     y="0px"
     width="402px" height="402px" viewBox="0 0 402 402"
     style="enable-background:new 0 0 402 402;"
     xml:space="preserve">
<g>
	<g>
		<g>
			<g>
				<path d="M201.048,368.728c-26.316,0-47.738-21.407-47.738-47.744c0-26.325,21.416-47.727,47.738-47.727
					c26.325,0,47.75,21.401,47.75,47.727C248.798,347.321,227.379,368.728,201.048,368.728z"/>
			</g>
		</g>
        <g>
			<g>
				<path d="M144.891,280.679c-8.713,0-16.909-3.393-23.07-9.564c-6.143-6.138-9.529-14.328-9.529-23.035s3.393-16.892,9.547-23.046
					c21.14-21.131,49.26-32.748,79.209-32.748c29.952,0,58.084,11.628,79.222,32.735c6.154,6.167,9.547,14.352,9.559,23.047
					c0.007,8.719-3.393,16.897-9.541,23.059c-12.37,12.34-33.843,12.31-46.117-0.012c-8.82-8.81-20.578-13.674-33.122-13.674
					c-12.529,0-24.287,4.864-33.128,13.697C161.789,277.287,153.604,280.679,144.891,280.679z"/>
			</g>
		</g>
	</g>
</g>
    <g>
</g>
    <g>
</g>
    <g>
</g>
    <g>
</g>
    <g>
</g>
    <g>
</g>
    <g>
</g>
    <g>
</g>
    <g>
</g>
    <g>
</g>
    <g>
</g>
    <g>
</g>
    <g>
</g>
    <g>
</g>
    <g>
</g>
</svg>
