<?xml version="1.0" encoding="UTF-8"?>
<svg xmlns="http://www.w3.org/2000/svg" id="Capa_1" height="512"
     viewBox="0 0 444.59 444.59" width="512" class="">
    <g>
        <g>
            <g>
                <path d="m395.714 162.509c0-1.646 0-3.242 0-4.989.034-41.741-33.777-75.606-75.518-75.639-14.995-.012-29.655 4.438-42.114 12.78-34.77-23.144-81.72-13.717-104.862 21.053-8.244 12.385-12.651 26.927-12.672 41.806v4.989c-37.036 10.779-58.321 49.542-47.542 86.578s49.542 58.321 86.576 47.542c8.557-2.491 16.559-6.597 23.573-12.095 26.775 20.151 63.615 20.292 90.546.35 28.517 30.519 76.376 32.141 106.895 3.624s32.141-76.376 3.624-106.895c-7.914-8.467-17.667-15.003-28.506-19.104z"
                      fill="#ebf0f3" data-original="#EBF0F3" class=""></path>
                <path d="m378.453 168.646c0-1.596 0-3.242 0-4.989.034-41.741-33.777-75.606-75.518-75.639-14.995-.012-29.655 4.438-42.114 12.78-34.716-23.226-81.686-13.913-104.912 20.803-8.326 12.446-12.77 27.081-12.772 42.055v4.989c-37.014 10.855-58.219 49.661-47.364 86.675s49.661 58.219 86.675 47.364c8.512-2.496 16.469-6.591 23.448-12.065 26.775 20.151 63.615 20.292 90.546.35 28.474 30.558 76.33 32.247 106.889 3.773 30.558-28.474 32.247-76.33 3.773-106.889-7.946-8.523-17.75-15.096-28.651-19.207z"
                      fill="#e1e6e9" data-original="#E1E6E9" class=""></path>
                <g fill="#27a2db">
                    <path d="m213.526 234.448h-207.678c-3.223.006-5.842-2.604-5.848-5.827-.006-3.223 2.604-5.842 5.827-5.848h.021 207.68c11.971.574 22.142-8.664 22.716-20.636.574-11.971-8.664-22.142-20.636-22.716-.693-.034-1.388-.034-2.079 0h-.947c-11.946.028-21.624 9.705-21.65 21.65.3 3.237-2.082 6.105-5.32 6.403-3.237.3-6.105-2.082-6.403-5.32-.034-.36-.034-.723 0-1.082.028-18.412 14.961-33.325 33.375-33.325h.947c18.418-.712 33.927 13.641 34.639 32.059s-13.641 33.927-32.059 34.639c-.864.035-1.724.035-2.585.003z"
                          data-original="#27A2DB" class="active-path"
                          style="fill:#5858C5" data-old_color="#27A2DB"></path>
                    <path d="m254.135 362.707h-.997c-18.412-.028-33.325-14.961-33.325-33.375-.006-3.223 2.602-5.842 5.827-5.848 3.223-.006 5.842 2.604 5.848 5.827v.021c.028 11.946 9.705 21.624 21.65 21.65h.997c11.958-.001 21.649-9.697 21.647-21.655-.001-11.955-9.692-21.646-21.647-21.647h-222.696c-3.238-.3-5.62-3.166-5.32-6.403.261-2.824 2.496-5.059 5.32-5.32h222.696c18.433.012 33.365 14.964 33.353 33.395-.012 18.418-14.938 33.344-33.353 33.355z"
                          data-original="#27A2DB" class="active-path"
                          style="fill:#5858C5" data-old_color="#27A2DB"></path>
                    <path d="m320.236 273.808h-222.646c-3.182.665-6.301-1.375-6.967-4.557-.665-3.182 1.375-6.301 4.557-6.967.794-.166 1.615-.166 2.411 0h222.646c11.971-.574 21.21-10.745 20.636-22.716-.536-11.168-9.469-20.1-20.636-20.636h-.947c-11.985 0-21.7 9.716-21.7 21.7.006 3.223-2.602 5.842-5.827 5.848-3.223.006-5.842-2.604-5.848-5.827 0-.007 0-.013 0-.021.028-18.421 14.954-33.347 33.375-33.375h.947c18.433.012 33.365 14.964 33.353 33.395-.012 18.415-14.938 33.341-33.353 33.353z"
                          data-original="#27A2DB" class="active-path"
                          style="fill:#5858C5" data-old_color="#27A2DB"></path>
                </g>
            </g>
        </g>
    </g>
</svg>
